#!OML:ASF I:\Actors\actors\Patient Classification 2\Patient 1\Session 1\actor1.ASF
:FULLY-SPECIFIED
:DEGREES
864
root -0.555818 18.5531 5.25447 -6.57149 -6.82176 -2.86911
lowerback 17.0979 -0.385468 4.68298
upperback 9.49113 0.15883 3.05938
thorax 0.575197 0.156182 0.553454
lowerneck -10.7334 -3.56729 -0.632922
upperneck 27.5942 -6.56698 5.55683
head 10.8684 -2.42371 1.28977
rclavicle 1.19271e-015 -1.74931e-014
rhumerus -37.4377 69.45 -123.634
rradius 139.91
rwrist 19.8113
rhand -44.1179 -55.224
rfingers 7.12502
rthumb -16.9347 -84.5057
lclavicle 1.19271e-015 -1.74931e-014
lhumerus -13.8387 -65.8893 111.037
lradius 136.286
lwrist 19.0621
lhand -31.602 -50.9551
lfingers 7.12502
lthumb -4.86442 -21.031
rfemur 13.2326 1.86452 16.7338
rtibia 1.19271e-014
rfoot -12.729 -10.0228
rtoes -11.7611
lfemur -0.0694015 1.31491 -11.3884
ltibia 26.3075
lfoot -20.5016 9.80973
ltoes -56.5612
865
root -0.561547 18.5563 5.27273 -6.59776 -6.56201 -2.93789
lowerback 16.5003 -0.364054 4.68639
upperback 9.29513 0.159453 3.0534
thorax 0.674033 0.158586 0.542524
lowerneck -10.7368 -3.59745 -0.765285
upperneck 27.1724 -6.58527 5.69306
head 10.7211 -2.4406 1.35645
rclavicle 3.97569e-016 2.06736e-014
rhumerus -34.1839 67.5399 -120.175
rradius 139.603
rwrist 17.6736
rhand -45.1162 -52.7537
rfingers 7.12502
rthumb -17.8954 -81.9504
lclavicle 3.97569e-016 2.06736e-014
lhumerus -15.184 -67.0657 112.051
lradius 135.292
lwrist 22.0824
lhand -30.2475 -57.7356
lfingers 7.12502
lthumb -3.55645 -27.7855
rfemur 13.3963 1.60003 16.7757
rtibia 2.3059e-014
rfoot -12.8249 -9.9457
rtoes -11.8694
lfemur 0.0765183 1.13202 -11.3267
ltibia 26.1135
lfoot -20.4109 9.76856
ltoes -56.6916
866
root -0.568709 18.559 5.28763 -6.65675 -6.3454 -2.92307
lowerback 16.0399 -0.342145 4.58413
upperback 9.06217 0.157424 3.00344
thorax 0.662138 0.154599 0.545138
lowerneck -10.6253 -3.53223 -0.505443
upperneck 26.9358 -6.38566 5.1831
head 10.5733 -2.39048 1.15587
rclavicle -3.77691e-015 1.59028e-015
rhumerus -32.255 65.9792 -118.001
rradius 139.442
rwrist 16.0165
rhand -45.3813 -50.041
rfingers 7.12502
rthumb -18.1505 -79.2142
lclavicle -3.77691e-015 1.59028e-015
lhumerus -16.81 -68.236 113.256
lradius 136.308
lwrist 24.0966
lhand -30.9268 -53.6609
lfingers 7.12502
lthumb -4.21241 -23.7228
rfemur 13.5587 1.38929 16.7402
rtibia 2.78299e-014
rfoot -12.9219 -9.85028
rtoes -11.5499
lfemur 0.241537 0.930442 -11.3523
ltibia 25.9283
lfoot -20.3908 9.73506
ltoes -56.7232
867
root -0.577482 18.56 5.30268 -6.75367 -6.19147 -2.90047
lowerback 15.8064 -0.330787 4.45339
upperback 8.72121 0.158999 2.92683
thorax 0.417164 0.147556 0.535177
lowerneck -10.3751 -3.44045 -0.429502
upperneck 26.6493 -6.19581 4.99717
head 10.4011 -2.33024 1.10389
rclavicle 6.36111e-015 2.06736e-014
rhumerus -33.0784 65.6004 -118.478
rradius 139.23
rwrist 16.0572
rhand -45.8555 -49.879
rfingers 7.12502
rthumb -18.6067 -79.0091
lclavicle 6.36111e-015 2.06736e-014
lhumerus -17.4043 -67.6274 113.374
lradius 136.129
lwrist 23.1184
lhand -30.537 -53.4005
lfingers 7.12502
lthumb -3.836 -23.4552
rfemur 13.7405 1.24214 16.7144
rtibia 0
rfoot -13.0155 -9.76657
rtoes -11.1289
lfemur 0.464625 0.711838 -11.3895
ltibia 25.7439
lfoot -20.4116 9.7643
ltoes -56.672
868
root -0.585699 18.561 5.3194 -6.82223 -6.04255 -2.90013
lowerback 15.3586 -0.293363 4.33724
upperback 8.48526 0.177192 2.87646
thorax 0.398769 0.153094 0.542596
lowerneck -10.2619 -3.37549 -0.472741
upperneck 26.397 -6.06494 4.96161
head 10.2812 -2.28725 1.11579
rclavicle 1.70955e-014 -7.95139e-015
rhumerus -33.7503 65.3692 -118.718
rradius 138.932
rwrist 15.7114
rhand -46.3 -47.6904
rfingers 7.12502
rthumb -19.0342 -76.779
lclavicle 1.70955e-014 -7.95139e-015
lhumerus -17.7669 -67.2297 113.234
lradius 136.005
lwrist 22.6178
lhand -29.7668 -52.9243
lfingers 7.12502
lthumb -3.09228 -22.967
rfemur 13.8992 1.09609 16.7091
rtibia 2.06736e-014
rfoot -13.1079 -9.68826
rtoes -10.914
lfemur 0.670318 0.500972 -11.4065
ltibia 25.5522
lfoot -20.4171 9.81135
ltoes -56.6462
